<svg xmlns="http://www.w3.org/2000/svg" viewBox="0 0 600 600" role="img" aria-label="Energetický portál AI Studio GHRAB">
  <defs>
    <radialGradient id="core" cx="50%" cy="45%" r="58%">
      <stop offset="0" stop-color="#e9fdff"/>
      <stop offset=".18" stop-color="#69f4ff"/>
      <stop offset=".46" stop-color="#087ca8"/>
      <stop offset=".72" stop-color="#07334f"/>
      <stop offset="1" stop-color="#020913"/>
    </radialGradient>
    <linearGradient id="metal" x1="0" y1="0" x2="1" y2="1">
      <stop stop-color="#42677e"/><stop offset=".22" stop-color="#101d2a"/><stop offset=".54" stop-color="#67869a"/><stop offset=".75" stop-color="#0b1621"/><stop offset="1" stop-color="#365e76"/>
    </linearGradient>
    <linearGradient id="gold" x1="0" y1="0" x2="1" y2="1">
      <stop stop-color="#ffe19a"/><stop offset=".4" stop-color="#e59736"/><stop offset="1" stop-color="#8f4a12"/>
    </linearGradient>
    <filter id="glow" x="-60%" y="-60%" width="220%" height="220%">
      <feGaussianBlur stdDeviation="8" result="b"/><feMerge><feMergeNode in="b"/><feMergeNode in="SourceGraphic"/></feMerge>
    </filter>
  </defs>
  <circle cx="300" cy="300" r="280" fill="#030914" stroke="#1b4a66" stroke-width="5"/>
  <circle cx="300" cy="300" r="256" fill="none" stroke="url(#metal)" stroke-width="30" stroke-dasharray="29 8"/>
  <circle cx="300" cy="300" r="226" fill="none" stroke="#0b9dd1" stroke-width="6" stroke-dasharray="8 18" filter="url(#glow)"/>
  <circle cx="300" cy="300" r="203" fill="none" stroke="url(#gold)" stroke-width="11" stroke-dasharray="48 13" opacity=".9"/>
  <circle cx="300" cy="300" r="178" fill="url(#core)" stroke="#6ff6ff" stroke-width="4" filter="url(#glow)"/>
  <g fill="none" stroke="#bdfcff" stroke-width="3" opacity=".75">
    <path d="M170 310c45-72 91-111 148-117 52-5 94 20 124 77"/>
    <path d="M163 337c72-61 144-72 215-31 22 13 41 30 58 51"/>
    <path d="M196 406c38-82 92-123 162-123 37 0 69 12 98 36"/>
  </g>
  <g transform="translate(300 300)" filter="url(#glow)">
    <circle r="86" fill="#041726" stroke="#80f8ff" stroke-width="3"/>
    <path d="M-53 50 0-64 53 50h-27L0-8-26 50Z" fill="#e8feff"/>
    <path d="M-21 16h42" stroke="#54e8f6" stroke-width="10" stroke-linecap="round"/>
    <circle r="73" fill="none" stroke="#1db7da" stroke-width="3" stroke-dasharray="9 10"/>
  </g>
  <g fill="#76f7ff" filter="url(#glow)">
    <circle cx="300" cy="31" r="7"/><circle cx="569" cy="300" r="7"/><circle cx="300" cy="569" r="7"/><circle cx="31" cy="300" r="7"/>
  </g>
</svg>
