<svg xmlns="http://www.w3.org/2000/svg" viewBox="0 0 760 760" width="760" height="760">
<defs><filter id="glow" x="-40%" y="-40%" width="180%" height="180%"><feGaussianBlur stdDeviation="3.2" result="b"/><feMerge><feMergeNode in="b"/><feMergeNode in="SourceGraphic"/></feMerge></filter></defs>
<path d="M386.88,140.50 A232,232 0 0 1 433.37,146.62 L422.79,191.39 A186,186 0 0 0 385.52,186.48 Z" fill="#0d2a3a" opacity=".96" stroke="#24556e" stroke-width="1"/>
<path d="M446.67,150.19 A232,232 0 0 1 489.99,168.13 L468.18,208.63 A186,186 0 0 0 433.45,194.25 Z" fill="#071b29" opacity=".96" stroke="#24556e" stroke-width="1"/>
<path d="M501.91,175.01 A232,232 0 0 1 539.11,203.56 L507.56,237.03 A186,186 0 0 0 477.74,214.15 Z" fill="#071b29" opacity=".96" stroke="#24556e" stroke-width="1"/>
<path d="M548.84,213.29 A232,232 0 0 1 577.39,250.49 L538.25,274.66 A186,186 0 0 0 515.37,244.84 Z" fill="#0d2a3a" opacity=".96" stroke="#24556e" stroke-width="1"/>
<path d="M584.27,262.41 A232,232 0 0 1 602.21,305.73 L558.15,318.95 A186,186 0 0 0 543.77,284.22 Z" fill="#071b29" opacity=".96" stroke="#24556e" stroke-width="1"/>
<path d="M605.78,319.03 A232,232 0 0 1 611.90,365.52 L565.92,366.88 A186,186 0 0 0 561.01,329.61 Z" fill="#071b29" opacity=".96" stroke="#24556e" stroke-width="1"/>
<path d="M611.90,379.28 A232,232 0 0 1 605.78,425.77 L561.01,415.19 A186,186 0 0 0 565.92,377.92 Z" fill="#0d2a3a" opacity=".96" stroke="#24556e" stroke-width="1"/>
<path d="M602.21,439.07 A232,232 0 0 1 584.27,482.39 L543.77,460.58 A186,186 0 0 0 558.15,425.85 Z" fill="#071b29" opacity=".96" stroke="#24556e" stroke-width="1"/>
<path d="M577.39,494.31 A232,232 0 0 1 548.84,531.51 L515.37,499.96 A186,186 0 0 0 538.25,470.14 Z" fill="#071b29" opacity=".96" stroke="#24556e" stroke-width="1"/>
<path d="M539.11,541.24 A232,232 0 0 1 501.91,569.79 L477.74,530.65 A186,186 0 0 0 507.56,507.77 Z" fill="#0d2a3a" opacity=".96" stroke="#24556e" stroke-width="1"/>
<path d="M489.99,576.67 A232,232 0 0 1 446.67,594.61 L433.45,550.55 A186,186 0 0 0 468.18,536.17 Z" fill="#071b29" opacity=".96" stroke="#24556e" stroke-width="1"/>
<path d="M433.37,598.18 A232,232 0 0 1 386.88,604.30 L385.52,558.32 A186,186 0 0 0 422.79,553.41 Z" fill="#071b29" opacity=".96" stroke="#24556e" stroke-width="1"/>
<path d="M373.12,604.30 A232,232 0 0 1 326.63,598.18 L337.21,553.41 A186,186 0 0 0 374.48,558.32 Z" fill="#0d2a3a" opacity=".96" stroke="#24556e" stroke-width="1"/>
<path d="M313.33,594.61 A232,232 0 0 1 270.01,576.67 L291.82,536.17 A186,186 0 0 0 326.55,550.55 Z" fill="#071b29" opacity=".96" stroke="#24556e" stroke-width="1"/>
<path d="M258.09,569.79 A232,232 0 0 1 220.89,541.24 L252.44,507.77 A186,186 0 0 0 282.26,530.65 Z" fill="#071b29" opacity=".96" stroke="#24556e" stroke-width="1"/>
<path d="M211.16,531.51 A232,232 0 0 1 182.61,494.31 L221.75,470.14 A186,186 0 0 0 244.63,499.96 Z" fill="#0d2a3a" opacity=".96" stroke="#24556e" stroke-width="1"/>
<path d="M175.73,482.39 A232,232 0 0 1 157.79,439.07 L201.85,425.85 A186,186 0 0 0 216.23,460.58 Z" fill="#071b29" opacity=".96" stroke="#24556e" stroke-width="1"/>
<path d="M154.22,425.77 A232,232 0 0 1 148.10,379.28 L194.08,377.92 A186,186 0 0 0 198.99,415.19 Z" fill="#071b29" opacity=".96" stroke="#24556e" stroke-width="1"/>
<path d="M148.10,365.52 A232,232 0 0 1 154.22,319.03 L198.99,329.61 A186,186 0 0 0 194.08,366.88 Z" fill="#0d2a3a" opacity=".96" stroke="#24556e" stroke-width="1"/>
<path d="M157.79,305.73 A232,232 0 0 1 175.73,262.41 L216.23,284.22 A186,186 0 0 0 201.85,318.95 Z" fill="#071b29" opacity=".96" stroke="#24556e" stroke-width="1"/>
<path d="M182.61,250.49 A232,232 0 0 1 211.16,213.29 L244.63,244.84 A186,186 0 0 0 221.75,274.66 Z" fill="#071b29" opacity=".96" stroke="#24556e" stroke-width="1"/>
<path d="M220.89,203.56 A232,232 0 0 1 258.09,175.01 L282.26,214.15 A186,186 0 0 0 252.44,237.03 Z" fill="#0d2a3a" opacity=".96" stroke="#24556e" stroke-width="1"/>
<path d="M270.01,168.13 A232,232 0 0 1 313.33,150.19 L326.55,194.25 A186,186 0 0 0 291.82,208.63 Z" fill="#071b29" opacity=".96" stroke="#24556e" stroke-width="1"/>
<path d="M326.63,146.62 A232,232 0 0 1 373.12,140.50 L374.48,186.48 A186,186 0 0 0 337.21,191.39 Z" fill="#071b29" opacity=".96" stroke="#24556e" stroke-width="1"/>
<circle cx="380.0" cy="372.4" r="186" fill="none" stroke="#f2a94d" stroke-width="2" opacity="0.72"/>
<circle cx="380.0" cy="372.4" r="194" fill="none" stroke="#4acfeb" stroke-width="1" opacity="0.38"/>
<circle cx="380.0" cy="372.4" r="225" fill="none" stroke="#3bdfff" stroke-width="1.3" opacity="0.46"/>
<circle cx="380.0" cy="372.4" r="232" fill="none" stroke="#f4b45b" stroke-width="2" opacity="0.48"/>
<g transform="translate(380.00 163.40) rotate(0)" stroke="#ffc36c" stroke-width="2" opacity=".78" stroke-linecap="round"><line x1="0" y1="-8" x2="0" y2="8"/><line x1="-5" y1="2" x2="5" y2="-2"/><line x1="-5" y1="6" x2="5" y2="6"/></g>
<g transform="translate(458.29 178.62) rotate(22)" stroke="#70eeff" stroke-width="2" opacity=".78" stroke-linecap="round"><line x1="-6" y1="-6" x2="5" y2="-6"/><line x1="0" y1="0" x2="6" y2="6"/><line x1="-5" y1="6" x2="5" y2="6"/></g>
<g transform="translate(525.18 222.06) rotate(44)" stroke="#70eeff" stroke-width="2" opacity=".78" stroke-linecap="round"><line x1="-6" y1="7" x2="0" y2="-7"/><line x1="6" y1="7" x2="-3" y2="2"/><line x1="-5" y1="6" x2="5" y2="6"/></g>
<g transform="translate(570.93 287.39) rotate(66)" stroke="#70eeff" stroke-width="2" opacity=".78" stroke-linecap="round"><line x1="-7" y1="-5" x2="7" y2="-5"/><line x1="-2" y1="0" x2="7" y2="6"/><line x1="-5" y1="6" x2="5" y2="6"/></g>
<g transform="translate(588.87 365.11) rotate(88)" stroke="#ffc36c" stroke-width="2" opacity=".78" stroke-linecap="round"><line x1="-6" y1="-7" x2="-6" y2="7"/><line x1="6" y1="0" x2="-1" y2="0"/><line x1="-5" y1="6" x2="5" y2="6"/></g>
<g transform="translate(576.40 443.88) rotate(110)" stroke="#70eeff" stroke-width="2" opacity=".78" stroke-linecap="round"><line x1="0" y1="-8" x2="0" y2="8"/><line x1="-5" y1="2" x2="5" y2="-2"/><line x1="-5" y1="6" x2="5" y2="6"/></g>
<g transform="translate(535.32 512.25) rotate(132)" stroke="#70eeff" stroke-width="2" opacity=".78" stroke-linecap="round"><line x1="-6" y1="-6" x2="5" y2="-6"/><line x1="0" y1="0" x2="6" y2="6"/><line x1="-5" y1="6" x2="5" y2="6"/></g>
<g transform="translate(471.62 560.25) rotate(154)" stroke="#70eeff" stroke-width="2" opacity=".78" stroke-linecap="round"><line x1="-6" y1="7" x2="0" y2="-7"/><line x1="6" y1="7" x2="-3" y2="2"/><line x1="-5" y1="6" x2="5" y2="6"/></g>
<g transform="translate(394.58 580.89) rotate(176)" stroke="#ffc36c" stroke-width="2" opacity=".78" stroke-linecap="round"><line x1="-7" y1="-5" x2="7" y2="-5"/><line x1="-2" y1="0" x2="7" y2="6"/><line x1="-5" y1="6" x2="5" y2="6"/></g>
<g transform="translate(315.42 571.17) rotate(198)" stroke="#70eeff" stroke-width="2" opacity=".78" stroke-linecap="round"><line x1="-6" y1="-7" x2="-6" y2="7"/><line x1="6" y1="0" x2="-1" y2="0"/><line x1="-5" y1="6" x2="5" y2="6"/></g>
<g transform="translate(245.66 532.50) rotate(220)" stroke="#70eeff" stroke-width="2" opacity=".78" stroke-linecap="round"><line x1="0" y1="-8" x2="0" y2="8"/><line x1="-5" y1="2" x2="5" y2="-2"/><line x1="-5" y1="6" x2="5" y2="6"/></g>
<g transform="translate(195.46 470.52) rotate(242)" stroke="#70eeff" stroke-width="2" opacity=".78" stroke-linecap="round"><line x1="-6" y1="-6" x2="5" y2="-6"/><line x1="0" y1="0" x2="6" y2="6"/><line x1="-5" y1="6" x2="5" y2="6"/></g>
<g transform="translate(172.14 394.25) rotate(264)" stroke="#ffc36c" stroke-width="2" opacity=".78" stroke-linecap="round"><line x1="-6" y1="7" x2="0" y2="-7"/><line x1="6" y1="7" x2="-3" y2="2"/><line x1="-5" y1="6" x2="5" y2="6"/></g>
<g transform="translate(179.10 314.79) rotate(286)" stroke="#70eeff" stroke-width="2" opacity=".78" stroke-linecap="round"><line x1="-7" y1="-5" x2="7" y2="-5"/><line x1="-2" y1="0" x2="7" y2="6"/><line x1="-5" y1="6" x2="5" y2="6"/></g>
<g transform="translate(215.31 243.73) rotate(308)" stroke="#70eeff" stroke-width="2" opacity=".78" stroke-linecap="round"><line x1="-6" y1="-7" x2="-6" y2="7"/><line x1="6" y1="0" x2="-1" y2="0"/><line x1="-5" y1="6" x2="5" y2="6"/></g>
<g transform="translate(275.50 191.40) rotate(330)" stroke="#70eeff" stroke-width="2" opacity=".78" stroke-linecap="round"><line x1="0" y1="-8" x2="0" y2="8"/><line x1="-5" y1="2" x2="5" y2="-2"/><line x1="-5" y1="6" x2="5" y2="6"/></g>
<g transform="translate(350.91 165.43) rotate(352)" stroke="#ffc36c" stroke-width="2" opacity=".78" stroke-linecap="round"><line x1="-6" y1="-6" x2="5" y2="-6"/><line x1="0" y1="0" x2="6" y2="6"/><line x1="-5" y1="6" x2="5" y2="6"/></g>
<line x1="487.26" y1="219.22" x2="512.50" y2="183.18" stroke="#65edff" stroke-width="4.2" opacity="0.95" stroke-linecap="round"/>
<line x1="386.53" y1="559.29" x2="388.06" y2="603.26" stroke="#ffc36c" stroke-width="4.2" opacity="0.95" stroke-linecap="round"/>
<line x1="193.11" y1="378.93" x2="149.14" y2="380.46" stroke="#b58dff" stroke-width="4.2" opacity="0.95" stroke-linecap="round"/>
</svg>
